<svg width="44" height="44" viewBox="0 0 44 44" fill="none" xmlns="http://www.w3.org/2000/svg">
<path d="M34.4805 25.3237C36.9544 25.3237 39.0622 26.1945 40.8037 27.936C42.5452 29.6776 43.416 31.7853 43.416 34.2593C43.416 36.7332 42.5452 38.841 40.8037 40.5825C39.0622 42.3241 36.9544 43.1948 34.4805 43.1948C32.0065 43.1948 29.8988 42.3241 28.1572 40.5825C26.4157 38.841 25.5449 36.7332 25.5449 34.2593C25.5449 34.1291 25.5531 33.9826 25.5693 33.8198C25.5856 33.6571 25.5938 33.4943 25.5938 33.3315L15.5352 28.3022C14.7539 29.0509 13.8424 29.6369 12.8008 30.0601C11.7591 30.4832 10.6523 30.6948 9.48047 30.6948C7.00651 30.6948 4.89876 29.8241 3.15723 28.0825C1.41569 26.341 0.544922 24.2332 0.544922 21.7593C0.544922 19.2853 1.41569 17.1776 3.15723 15.436C4.89876 13.6945 7.00651 12.8237 9.48047 12.8237C10.6523 12.8237 11.7591 13.0435 12.8008 13.4829C13.8424 13.9224 14.7539 14.5164 15.5352 15.2651L25.5938 10.2358C25.5938 10.0731 25.5856 9.91032 25.5693 9.74756C25.5531 9.5848 25.5449 9.42204 25.5449 9.25928C25.5449 6.78532 26.4157 4.67757 28.1572 2.93604C29.8988 1.1945 32.0065 0.32373 34.4805 0.32373C36.9544 0.32373 39.0622 1.1945 40.8037 2.93604C42.5452 4.67757 43.416 6.78532 43.416 9.25928C43.416 11.7332 42.5452 13.841 40.8037 15.5825C39.0622 17.3241 36.9544 18.1948 34.4805 18.1948C33.3086 18.1948 32.2018 17.9832 31.1602 17.5601C30.1185 17.1369 29.1908 16.5509 28.377 15.8022L18.3672 20.8315C18.3672 20.9943 18.3753 21.1571 18.3916 21.3198C18.4079 21.4826 18.416 21.6291 18.416 21.7593C18.416 21.922 18.4079 22.0848 18.3916 22.2476C18.3753 22.4103 18.3672 22.5731 18.3672 22.7358L28.377 27.7651C29.1908 27.0164 30.1185 26.4224 31.1602 25.9829C32.2018 25.5435 33.3086 25.3237 34.4805 25.3237Z" fill="white"/>
</svg>
